<svg xmlns="http://www.w3.org/2000/svg" width="24.5" height="25" viewBox="0 0 24.5 25"><g transform="translate(-251 -2106.5)"><path d="M0,23a1.993,1.993,0,0,1-1.379-.552,2,2,0,0,1-.069-2.828l20-21a2,2,0,0,1,2.828-.069,2,2,0,0,1,.069,2.828l-20,21A2,2,0,0,1,0,23Z" transform="translate(253 2108.5)" fill="#fff"/><path d="M15,2H0A2,2,0,0,1-2,0,2,2,0,0,1,0-2H15a2,2,0,0,1,2,2A2,2,0,0,1,15,2Z" transform="translate(258.5 2108.5)" fill="#fff"/><path d="M0,17a2,2,0,0,1-2-2V0A2,2,0,0,1,0-2,2,2,0,0,1,2,0V15A2,2,0,0,1,0,17Z" transform="translate(273.5 2108.5)" fill="#fff"/></g></svg>