<svg xmlns="http://www.w3.org/2000/svg" width="285.714" height="200" viewBox="0 0 285.714 200">
  <path id="Icon_fa-solid-car-side" data-name="Icon fa-solid-car-side" d="M209.241,30.821H185.714V73.679h50.313L222.455,39.795A14.211,14.211,0,0,0,209.241,30.821ZM164.286,73.679V30.821h-36.25a14.312,14.312,0,0,0-11.161,5.357l-30,37.5Zm-114.375.446,44.643-55.8A42.8,42.8,0,0,1,128.036,2.25h81.205a42.793,42.793,0,0,1,39.777,26.92l18.571,46.473a28.591,28.591,0,0,1,18.125,26.607v50a14.27,14.27,0,0,1-14.286,14.286H256.563a42.88,42.88,0,0,1-84.554,0h-58.3a42.88,42.88,0,0,1-84.554,0H14.286A14.27,14.27,0,0,1,0,152.25V130.821A57.191,57.191,0,0,1,49.911,74.125ZM91.652,152.25A21.428,21.428,0,1,0,78.593,179.6,21.426,21.426,0,0,0,91.652,152.25Zm122.634-14.286a21.429,21.429,0,1,0,21.429,21.429A21.429,21.429,0,0,0,214.286,137.964Z" transform="translate(0 -2.25)"/>
</svg>
